<?xml version="1.0" encoding="UTF-8" standalone="no"?>
<!-- Creator: CorelDRAW X7 -->

<svg
   xmlns:dc="http://purl.org/dc/elements/1.1/"
   xmlns:cc="http://creativecommons.org/ns#"
   xmlns:rdf="http://www.w3.org/1999/02/22-rdf-syntax-ns#"
   xmlns:svg="http://www.w3.org/2000/svg"
   xmlns="http://www.w3.org/2000/svg"
   xmlns:sodipodi="http://sodipodi.sourceforge.net/DTD/sodipodi-0.dtd"
   xmlns:inkscape="http://www.inkscape.org/namespaces/inkscape"
   xml:space="preserve"
   width="124.463mm"
   height="116.49281mm"
   version="1.1"
   style="clip-rule:evenodd;fill-rule:evenodd;image-rendering:optimizeQuality;shape-rendering:geometricPrecision;text-rendering:geometricPrecision"
   viewBox="0 0 12445.993 11648.77"
   id="svg107"
   sodipodi:docname="Shivalinga.svg"
   inkscape:version="0.92.3 (2405546, 2018-03-11)"><title
   id="title113">Siva Linga symbol</title><metadata
   id="metadata111"><rdf:RDF><cc:Work
       rdf:about=""><dc:format>image/svg+xml</dc:format><dc:type
         rdf:resource="http://purl.org/dc/dcmitype/StillImage" /><dc:title>Siva Linga symbol</dc:title><dc:creator><cc:Agent><dc:title></dc:title></cc:Agent></dc:creator><cc:license
         rdf:resource="http://creativecommons.org/publicdomain/zero/1.0/" /><dc:description>Shiva linga</dc:description></cc:Work><cc:License
       rdf:about="http://creativecommons.org/publicdomain/zero/1.0/"><cc:permits
         rdf:resource="http://creativecommons.org/ns#Reproduction" /><cc:permits
         rdf:resource="http://creativecommons.org/ns#Distribution" /><cc:permits
         rdf:resource="http://creativecommons.org/ns#DerivativeWorks" /></cc:License></rdf:RDF></metadata><sodipodi:namedview
   pagecolor="#ffffff"
   bordercolor="#666666"
   borderopacity="1"
   objecttolerance="10"
   gridtolerance="10"
   guidetolerance="10"
   inkscape:pageopacity="0"
   inkscape:pageshadow="2"
   inkscape:window-width="1920"
   inkscape:window-height="1001"
   id="namedview109"
   showgrid="false"
   fit-margin-top="1"
   fit-margin-left="2"
   fit-margin-right="1"
   fit-margin-bottom="1.5"
   showborder="false"
   inkscape:zoom="0.54775793"
   inkscape:cx="237.09543"
   inkscape:cy="221.08887"
   inkscape:window-x="-9"
   inkscape:window-y="-9"
   inkscape:window-maximized="1"
   inkscape:current-layer="svg107" />
 <defs
   id="defs101"><style
     type="text/css"
     id="style99">
   <![CDATA[
    .fil0 {fill:black;fill-rule:nonzero}
   ]]>
  </style></defs>
 <g
   id="Layer_x0020_1"
   transform="translate(199.99506,99.88596)">
  <metadata
   id="CorelCorpID_0Corel-Layer" />
  <path
   class="fil0"
   d="m 12146,7384 c 0,-511 -495,-808 -1006,-808 H 7490 c -373,0 -556,-160 -868,-312 L 6363,6126 V 2568 C 6363,1227 5464,0 3932,0 2362,0 1501,1394 1501,2568 V 6104 C 1128,6294 861,6477 472,6835 183,7109 0,7521 0,7879 v 1463 c 0,1433 1890,2057 3825,2057 1585,0 2431,-365 3025,-746 183,-122 267,-183 564,-183 h 2881 c 426,0 464,0 815,-15 442,-16 1036,-511 1036,-1029 z m -6172,91 c 0,320 -853,747 -2149,747 -518,0 -922,0 -1440,-213 -297,-122 -488,-275 -488,-633 V 2370 c 0,-1128 953,-1974 2020,-1974 1089,0 2057,968 2057,2020 z M 373,8854 c 686,877 2081,1273 3467,1273 1151,0 1982,-152 2919,-693 221,-130 290,-237 655,-237 h 4123 c 114,0 198,-45 228,-76 v 343 c 0,290 -518,617 -739,617 H 7300 c -145,0 -351,46 -495,137 -549,336 -1364,793 -2987,793 -1372,0 -3445,-335 -3445,-1707 z M 739,7826 c 0,503 374,929 1075,1181 716,251 1455,373 2004,373 838,0 1455,-68 2156,-335 297,-114 526,-244 678,-381 145,-145 427,-206 846,-206 h 3620 c 274,0 419,-411 419,-571 0,-99 -107,-572 -412,-572 H 7414 c -381,0 -510,-68 -777,-228 l -282,-168 v -358 l 229,137 c 190,122 518,259 731,259 h 3947 c 282,0 511,183 511,351 v 160 c 46,129 137,282 137,419 0,152 -137,320 -137,434 v 122 c 0,267 -152,358 -373,358 H 7414 c -274,0 -213,8 -305,15 -91,8 -221,69 -396,183 -807,541 -1897,755 -2880,755 -1036,0 -3475,-442 -3475,-1928 0,-130 99,-313 198,-465 137,-206 221,-290 366,-419 183,-160 373,-267 579,-381 v 343 c -328,137 -762,533 -762,922 z m 389,15 c 0,-137 221,-434 373,-457 0,571 313,800 770,998 388,168 998,259 1577,259 945,0 2507,-358 2507,-1219 v -46 l 236,130 c 252,129 389,205 724,205 h 3749 c 92,0 168,92 168,176 0,91 -76,175 -160,175 H 7239 c -290,0 -533,76 -732,236 -190,160 -434,290 -723,389 -587,206 -1220,305 -1966,305 -427,0 -1014,-92 -1677,-282 C 1478,8527 1128,8199 1128,7841 Z M 5090,2713 c 92,0 145,-46 145,-153 v -68 c 0,-115 -61,-168 -183,-168 H 2827 c -137,0 -198,61 -198,175 v 61 c 0,107 53,153 190,153 z m 0,746 c 92,0 145,-53 145,-160 v -61 c 0,-114 -61,-175 -183,-175 H 2827 c -137,0 -198,61 -198,183 v 53 c 0,115 53,160 190,160 z m 0,755 c 92,0 145,-46 145,-153 v -68 c 0,-114 -61,-168 -183,-168 H 2827 c -137,0 -198,61 -198,175 v 61 c 0,107 53,153 190,153 z"
   id="path104"
   inkscape:connector-curvature="0"
   style="fill:white;fill-rule:nonzero" />
 </g>
</svg>